<svg width="24" height="24" viewBox="818 85 24 24" fill="none" xmlns="http://www.w3.org/2000/svg" xmlns:xlink="http://www.w3.org/1999/xlink">
<g id="Objects / Note_Txt">
<path id="Vector_31" d="M823.836 106H836.173C837.118 106 837.826 105.747 838.296 105.242C838.765 104.737 839 103.979 839 102.969V91.031C839 90.0206 838.765 89.2629 838.296 88.7577C837.826 88.2526 837.118 88 836.173 88H823.836C822.891 88 822.182 88.2526 821.709 88.7577C821.236 89.2629 821 90.0206 821 91.031V102.969C821 103.979 821.236 104.737 821.709 105.242C822.182 105.747 822.891 106 823.836 106ZM823.7 104.426C823.303 104.426 822.996 104.31 822.779 104.079C822.562 103.847 822.454 103.507 822.454 103.057V93.8371C822.454 93.3873 822.562 93.0467 822.779 92.8153C822.996 92.5839 823.303 92.4682 823.7 92.4682H836.291C836.694 92.4682 837.004 92.5839 837.221 92.8153C837.438 93.0467 837.546 93.3873 837.546 93.8371V103.057C837.546 103.507 837.438 103.847 837.221 104.079C837.004 104.31 836.694 104.426 836.291 104.426H823.7ZM825.272 96.1054H834.755C834.918 96.1054 835.052 96.0467 835.157 95.9294C835.262 95.8121 835.315 95.6654 835.315 95.4894C835.315 95.3265 835.262 95.188 835.157 95.0739C835.052 94.9598 834.918 94.9028 834.755 94.9028H825.272C825.109 94.9028 824.974 94.9598 824.866 95.0739C824.757 95.188 824.703 95.3265 824.703 95.4894C824.703 95.6654 824.757 95.8121 824.866 95.9294C824.974 96.0467 825.109 96.1054 825.272 96.1054ZM825.272 99.0484H834.755C834.918 99.0484 835.052 98.9914 835.157 98.8773C835.262 98.7632 835.315 98.6247 835.315 98.4618C835.315 98.2922 835.262 98.1472 835.157 98.0267C835.052 97.9061 834.918 97.8458 834.755 97.8458H825.272C825.109 97.8458 824.974 97.9061 824.866 98.0267C824.757 98.1472 824.703 98.2922 824.703 98.4618C824.703 98.6247 824.757 98.7632 824.866 98.8773C824.974 98.9914 825.109 99.0484 825.272 99.0484ZM825.272 102.001H831.296C831.459 102.001 831.593 101.944 831.698 101.83C831.803 101.716 831.856 101.574 831.856 101.405C831.856 101.235 831.803 101.092 831.698 100.974C831.593 100.857 831.459 100.798 831.296 100.798H825.272C825.109 100.798 824.974 100.857 824.866 100.974C824.757 101.092 824.703 101.235 824.703 101.405C824.703 101.574 824.757 101.716 824.866 101.83C824.974 101.944 825.109 102.001 825.272 102.001Z" fill="black" fill-opacity="0.8"/>
</g>

</svg>
